<?xml version="1.0" encoding="UTF-8" standalone="no"?>
<!DOCTYPE svg PUBLIC "-//W3C//DTD SVG 1.1//EN"
 "http://www.w3.org/Graphics/SVG/1.1/DTD/svg11.dtd">
<!-- Generated by graphviz version 2.40.1 (20161225.0304)
 -->
<!-- Title: %0 Pages: 1 -->
<svg width="296pt" height="548pt"
 viewBox="0.00 0.00 295.63 548.00" xmlns="http://www.w3.org/2000/svg" xmlns:xlink="http://www.w3.org/1999/xlink">
<g id="graph0" class="graph" transform="scale(1 1) rotate(0) translate(4 544)">
<title>%0</title>
<polygon fill="#ffffff" stroke="transparent" points="-4,4 -4,-544 291.6333,-544 291.6333,4 -4,4"/>
<!-- n0 -->
<g id="node1" class="node">
<title>n0</title>
<ellipse fill="none" stroke="#000000" cx="183.2815" cy="-450" rx="32.4595" ry="18"/>
<text text-anchor="middle" x="183.2815" y="-445.8" font-family="Times,serif" font-size="14.00" fill="#000000">Keter</text>
</g>
<!-- n1 -->
<g id="node2" class="node">
<title>n1</title>
<ellipse fill="none" stroke="#000000" cx="102.2815" cy="-378" rx="34.2084" ry="18"/>
<text text-anchor="middle" x="102.2815" y="-373.8" font-family="Times,serif" font-size="14.00" fill="#000000">Binah</text>
</g>
<!-- n0&#45;&#45;n1 -->
<g id="edge5" class="edge">
<title>n0&#45;&#45;n1</title>
<path fill="none" stroke="#000000" d="M165.7057,-434.3771C152.1193,-422.3003 133.4008,-405.6616 119.823,-393.5924"/>
</g>
<!-- n2 -->
<g id="node3" class="node">
<title>n2</title>
<ellipse fill="none" stroke="#000000" cx="203.2815" cy="-378" rx="48.6791" ry="18"/>
<text text-anchor="middle" x="203.2815" y="-373.8" font-family="Times,serif" font-size="14.00" fill="#000000">Chokmah</text>
</g>
<!-- n0&#45;&#45;n2 -->
<g id="edge6" class="edge">
<title>n0&#45;&#45;n2</title>
<path fill="none" stroke="#000000" d="M188.2253,-432.2022C191.2792,-421.2085 195.1867,-407.1413 198.2556,-396.0931"/>
</g>
<!-- n6 -->
<g id="node7" class="node">
<title>n6</title>
<ellipse fill="none" stroke="#000000" cx="209.2815" cy="-234" rx="39.9799" ry="18"/>
<text text-anchor="middle" x="209.2815" y="-229.8" font-family="Times,serif" font-size="14.00" fill="#000000">Tilferet</text>
</g>
<!-- n0&#45;&#45;n6 -->
<g id="edge7" class="edge">
<title>n0&#45;&#45;n6</title>
<path fill="none" stroke="#000000" d="M209.8356,-439.5523C227.9361,-430.8627 250.5036,-416.5704 261.2815,-396 287.1914,-346.5491 246.5007,-281.816 223.4268,-251.3194"/>
</g>
<!-- n1&#45;&#45;n2 -->
<g id="edge8" class="edge">
<title>n1&#45;&#45;n2</title>
<path fill="none" stroke="#000000" d="M136.6057,-378C142.5961,-378 148.5865,-378 154.5769,-378"/>
</g>
<!-- n4 -->
<g id="node5" class="node">
<title>n4</title>
<ellipse fill="none" stroke="#000000" cx="44.2815" cy="-306" rx="44.0641" ry="18"/>
<text text-anchor="middle" x="44.2815" y="-301.8" font-family="Times,serif" font-size="14.00" fill="#000000">Gevurah</text>
</g>
<!-- n1&#45;&#45;n4 -->
<g id="edge9" class="edge">
<title>n1&#45;&#45;n4</title>
<path fill="none" stroke="#000000" d="M88.8294,-361.3008C79.5932,-349.8352 67.3697,-334.6612 58.0635,-323.1086"/>
</g>
<!-- n5 -->
<g id="node6" class="node">
<title>n5</title>
<ellipse fill="none" stroke="#000000" cx="141.2815" cy="-306" rx="35.3315" ry="18"/>
<text text-anchor="middle" x="141.2815" y="-301.8" font-family="Times,serif" font-size="14.00" fill="#000000">Hesed</text>
</g>
<!-- n1&#45;&#45;n5 -->
<g id="edge11" class="edge">
<title>n1&#45;&#45;n5</title>
<path fill="none" stroke="#000000" d="M111.7223,-360.5708C117.809,-349.3339 125.6963,-334.7727 131.7925,-323.5182"/>
</g>
<!-- n1&#45;&#45;n6 -->
<g id="edge10" class="edge">
<title>n1&#45;&#45;n6</title>
<path fill="none" stroke="#000000" d="M129.2611,-366.7881C147.6562,-357.8085 171.1549,-343.4853 185.2815,-324 200.848,-302.5286 206.3195,-271.6314 208.2418,-252.1971"/>
</g>
<!-- n2&#45;&#45;n5 -->
<g id="edge13" class="edge">
<title>n2&#45;&#45;n5</title>
<path fill="none" stroke="#000000" d="M188.273,-360.5708C178.3817,-349.0841 165.4993,-334.1239 155.7248,-322.7729"/>
</g>
<!-- n2&#45;&#45;n6 -->
<g id="edge12" class="edge">
<title>n2&#45;&#45;n6</title>
<path fill="none" stroke="#000000" d="M209.6763,-359.7647C212.9661,-349.4187 216.6257,-336.1474 218.2815,-324 221.6748,-299.1055 217.3109,-270.1729 213.5607,-251.9742"/>
</g>
<!-- n3 -->
<g id="node4" class="node">
<title>n3</title>
<ellipse fill="none" stroke="#000000" cx="213.2815" cy="-522" rx="32.4595" ry="18"/>
<text text-anchor="middle" x="213.2815" y="-517.8" font-family="Times,serif" font-size="14.00" fill="#000000">Da&#39;at</text>
</g>
<!-- n3&#45;&#45;n0 -->
<!-- n3&#45;&#45;n1 -->
<!-- n3&#45;&#45;n2 -->
<!-- n3&#45;&#45;n6 -->
<!-- n4&#45;&#45;n2 -->
<g id="edge14" class="edge">
<title>n4&#45;&#45;n2</title>
<path fill="none" stroke="#000000" d="M73.8933,-319.4091C101.9034,-332.093 143.7792,-351.0556 172.2473,-363.9468"/>
</g>
<!-- n4&#45;&#45;n5 -->
<g id="edge15" class="edge">
<title>n4&#45;&#45;n5</title>
<path fill="none" stroke="#000000" d="M88.6135,-306C94.3741,-306 100.1347,-306 105.8952,-306"/>
</g>
<!-- n4&#45;&#45;n6 -->
<g id="edge16" class="edge">
<title>n4&#45;&#45;n6</title>
<path fill="none" stroke="#000000" d="M74.545,-292.7941C104.6885,-279.6406 150.6371,-259.5903 180.3164,-246.6393"/>
</g>
<!-- n7 -->
<g id="node8" class="node">
<title>n7</title>
<ellipse fill="none" stroke="#000000" cx="81.2815" cy="-162" rx="27.8306" ry="18"/>
<text text-anchor="middle" x="81.2815" y="-157.8" font-family="Times,serif" font-size="14.00" fill="#000000">Hod</text>
</g>
<!-- n4&#45;&#45;n7 -->
<g id="edge17" class="edge">
<title>n4&#45;&#45;n7</title>
<path fill="none" stroke="#000000" d="M48.8928,-288.0535C55.9829,-260.4592 69.4871,-207.9026 76.6121,-180.1727"/>
</g>
<!-- n5&#45;&#45;n7 -->
<g id="edge18" class="edge">
<title>n5&#45;&#45;n7</title>
<path fill="none" stroke="#000000" d="M133.9243,-288.3428C122.4087,-260.7053 100.2514,-207.5278 88.6989,-179.8017"/>
</g>
<!-- n8 -->
<g id="node9" class="node">
<title>n8</title>
<ellipse fill="none" stroke="#000000" cx="165.2815" cy="-162" rx="38.2607" ry="18"/>
<text text-anchor="middle" x="165.2815" y="-157.8" font-family="Times,serif" font-size="14.00" fill="#000000">Netzah</text>
</g>
<!-- n5&#45;&#45;n8 -->
<g id="edge19" class="edge">
<title>n5&#45;&#45;n8</title>
<path fill="none" stroke="#000000" d="M144.2726,-288.0535C148.8716,-260.4592 157.6311,-207.9026 162.2527,-180.1727"/>
</g>
<!-- n6&#45;&#45;n5 -->
<g id="edge20" class="edge">
<title>n6&#45;&#45;n5</title>
<path fill="none" stroke="#000000" d="M193.4404,-250.7729C182.3772,-262.4869 167.6836,-278.0448 156.7118,-289.6621"/>
</g>
<!-- n6&#45;&#45;n7 -->
<g id="edge21" class="edge">
<title>n6&#45;&#45;n7</title>
<path fill="none" stroke="#000000" d="M183.9928,-219.7751C160.0955,-206.3329 124.6639,-186.4026 102.2837,-173.8137"/>
</g>
<!-- n6&#45;&#45;n8 -->
<g id="edge22" class="edge">
<title>n6&#45;&#45;n8</title>
<path fill="none" stroke="#000000" d="M198.6303,-216.5708C191.7633,-205.3339 182.8648,-190.7727 175.9871,-179.5182"/>
</g>
<!-- n9 -->
<g id="node10" class="node">
<title>n9</title>
<ellipse fill="none" stroke="#000000" cx="165.2815" cy="-90" rx="35.9154" ry="18"/>
<text text-anchor="middle" x="165.2815" y="-85.8" font-family="Times,serif" font-size="14.00" fill="#000000">Yesod</text>
</g>
<!-- n6&#45;&#45;n9 -->
<g id="edge23" class="edge">
<title>n6&#45;&#45;n9</title>
<path fill="none" stroke="#000000" d="M213.7884,-216.1022C217.5991,-197.46 221.1584,-167.7199 212.2815,-144 206.6184,-128.8677 194.5869,-115.179 184.1152,-105.3699"/>
</g>
<!-- n7&#45;&#45;n8 -->
<g id="edge24" class="edge">
<title>n7&#45;&#45;n8</title>
<path fill="none" stroke="#000000" d="M109.1721,-162C115.0169,-162 120.8616,-162 126.7063,-162"/>
</g>
<!-- n7&#45;&#45;n9 -->
<g id="edge25" class="edge">
<title>n7&#45;&#45;n9</title>
<path fill="none" stroke="#000000" d="M98.2802,-147.4297C112.4703,-135.2668 132.6468,-117.9726 147.1453,-105.5454"/>
</g>
<!-- n8&#45;&#45;n9 -->
<g id="edge26" class="edge">
<title>n8&#45;&#45;n9</title>
<path fill="none" stroke="#000000" d="M165.2815,-143.8314C165.2815,-133 165.2815,-119.2876 165.2815,-108.4133"/>
</g>
<!-- n10 -->
<g id="node11" class="node">
<title>n10</title>
<ellipse fill="none" stroke="#000000" cx="165.2815" cy="-18" rx="43.5214" ry="18"/>
<text text-anchor="middle" x="165.2815" y="-13.8" font-family="Times,serif" font-size="14.00" fill="#000000">Malkhut</text>
</g>
<!-- n9&#45;&#45;n10 -->
<g id="edge27" class="edge">
<title>n9&#45;&#45;n10</title>
<path fill="none" stroke="#000000" d="M165.2815,-71.8314C165.2815,-61 165.2815,-47.2876 165.2815,-36.4133"/>
</g>
</g>
</svg>
